<svg xmlns="http://www.w3.org/2000/svg" width="256.883" height="59.296" viewBox="0 0 256.883 59.296">
  <g id="Group_4" data-name="Group 4" transform="translate(-127.65 -56.42)">
    <g id="Group_20" data-name="Group 20">
      <path id="Path_2" data-name="Path 2" d="M175.463,65.925c1.618-2.137,3.412-4.42,5.975-5.764.674-.354,1.038-1.033,1.663-1.419,1.145-.558,1.567-.093.859,1.348a25.5,25.5,0,0,1-5.95,5.554c-.9.624-1.188,1.363-2.073,2.04-1.294.348-1-1.07-.474-1.76m-45.9,9.964c2.1.066,5.28,1.842,8.78,2.731,1.052.818.485,1.361-1.239,1.857-1.477-.144-2.543-1.142-3.85-1.753-1.014-.473-3.342-.808-4.277-1.17C126.842,76.732,127.463,75.821,129.564,75.888Zm9-14.9a3.13,3.13,0,0,1,1.746-1.618,72.441,72.441,0,0,1,8.017,9.35c.532.889-.744,1.224-1.635.606C144.077,66.419,141.35,63.666,138.562,60.992Zm22.8-4.291a1.884,1.884,0,0,1,2.214.17c.132,3.989.2,8.361-.786,12.251-.131.64-.831.56-1.162-.244A31.883,31.883,0,0,1,161.364,56.7ZM142.5,102.458a159.251,159.251,0,0,0,1.268-25.191c.027-1.4.65-1.547,2.033-1.324,10.4.489,20.484-.629,30.723-.945,2.531-.122,3.913,1.509,3.939,3.078-.476,7.936-1.815,15.523-.987,23.5l.246,2.964c.156,1.842-.641,2.91-2.816,3.51a59.008,59.008,0,0,0-28.39.235c-2.132.97-3.511.752-2.887-1.038,2.675-5.922,3.553-15.505,3.407-24.638a1.949,1.949,0,0,1,1.912-1.985,1.864,1.864,0,0,1,.248.011c7.214-.123,13.416.891,20.929.931,1.66-.066,1.988.289,2,1.589a61.246,61.246,0,0,0,.822,15.478c.287,1.271.127,1.987-.337,2.326a50.615,50.615,0,0,0-13.925-.527c-.173-.1-.048-.366-.066-.516,3.05-1.432,6.346-1.543,11.054-1.079,1.487.142.533-.982.234-3.194A61.2,61.2,0,0,1,171.75,84.4c.1-.921.066-1.331-1-1.27-6.2.2-11.7-1.262-18.542-.663-1.063.081-1.2.681-.916,1.518a66.221,66.221,0,0,1-1.882,20.784c-.091.494.066.586.835.6,6.85-1.6,15.143-2.008,25.652-.6,1.456.273,1.692-.314,1.548-2.374-1.535-9.522.982-16.086.685-24.44q.081-1.406-1.545-1.245c-11.424-.186-19.373,1.808-29.315.943-.97-.1-1.1.291-1.139,1.287.3,1.966-.012,11.186-.546,17.86-.28,3.494-.329,6.356-1.016,6.968-.47.418-1.1-.251-2.064-1.307Zm51-30.045c-2.056.438-5.714,2.717-7.837,3.978s-2.016,2.65-.231,2.83c1.428-.4,3.859-2.682,5.227-3.134a13.973,13.973,0,0,0,3.857-2.111c1.7-1.533,1.038-2-1.017-1.561Zm-51.927,42.394c1.047-2.028,3.137-2.077,5.361-2.324,2.092-.233,4.233-.479,5.819-.767a101.248,101.248,0,0,1,27.258-.759c.652.066.633.855.065,1.669-1.26,1.812-2.623.952-4.631.815-11.313-.774-20.251-.486-30.412,1.749C143.247,115.584,140.967,115.986,141.577,114.807Z" fill-rule="evenodd"/>
      <path id="Path_3" data-name="Path 3" d="M214.73,82.105c-.646,1.952-1.109,3.388-1.371,4.315a32.171,32.171,0,0,0,3.427.177,29.975,29.975,0,0,0,3.668-.213q-.771-2.237-1.579-4.474-1.422-3.965-2.124-5.593c-.32.709-1,2.643-2.022,5.79m-6.608,16.9c-.647,0-1.217.011-1.7.035s-.874.05-1.176.074v-.14a4.008,4.008,0,0,0,.542-.483,6.969,6.969,0,0,0,.9-1.189A26.083,26.083,0,0,0,208,94.764c.548-1.171.976-2.141,1.291-2.923l4.553-11.558q1.776-4.5,1.771-6.008a2.94,2.94,0,0,0-.177-1.127,1.9,1.9,0,0,0-.258-.437v-.139c.081,0,.154,0,.223.007s.206.018.389.029.4.024.646.043.45.031.618.031a12.468,12.468,0,0,0,1.889-.182l2.776,8.189q1.02,2.961,2.028,5.746t2.114,5.636q1.111,2.865,1.73,4.244a9.37,9.37,0,0,0,.954,1.793,8.585,8.585,0,0,0,.987.939v.073c-.114,0-.46-.036-1.056-.109a13.7,13.7,0,0,0-1.417-.1c-.371,0-1.211.072-2.531.212q-.582-2.255-1.753-5.964-.523-1.69-1.711-5.1-1.635-.072-4.318-.072c-.834,0-2.188.055-4.05.157l-1.153,3.376q-.533,1.619-1.011,3.328a11.329,11.329,0,0,0-.491,2.637,1.637,1.637,0,0,0,.2.891,1.586,1.586,0,0,0,.461.49,1.058,1.058,0,0,0,.263.146v.109a5.818,5.818,0,0,0-1.063-.073q-1.062-.037-1.781-.037Z"/>
      <path id="Path_4" data-name="Path 4" d="M238.529,84.237h5.4c.062-.037.268-.158.617-.376a4.619,4.619,0,0,0,1.034-.9,5.381,5.381,0,0,0,.925-1.607,6.729,6.729,0,0,0,.429-2.423,5.3,5.3,0,0,0-.737-2.829,4.716,4.716,0,0,0-2.01-1.818,6.467,6.467,0,0,0-2.9-.624,15.617,15.617,0,0,0-1.822.109c-.624.066-.954.23-.987.479Zm0,1.6c.011.024.017.381.017,1.085v2.43c0,.928.006,1.625.018,2.1s.034,1.026.065,1.686.066,1.3.1,1.891.057,1.018.066,1.254c.092.037.491.213,1.212.522a12.825,12.825,0,0,0,2.079.724,8.721,8.721,0,0,0,2.073.248,16.191,16.191,0,0,0,1.89-.213,3.53,3.53,0,0,0,2.6-2.229,7.262,7.262,0,0,0,.468-2.764,6.948,6.948,0,0,0-1-3.8,6.362,6.362,0,0,0-2.679-2.376,8.34,8.34,0,0,0-3.633-.8,22.569,22.569,0,0,0-3.274.249ZM236.2,72.677c.658,0,1.89-.079,3.689-.242S243,72.2,243.818,72.2q6.221,0,6.341,5.132a6.367,6.367,0,0,1-.795,3.255A12.27,12.27,0,0,1,247,83.4l-1.188,1.068a8.353,8.353,0,0,1,3.365.975,6.855,6.855,0,0,1,2.489,2.292,5.776,5.776,0,0,1,.954,3.231,8.162,8.162,0,0,1-1.011,3.97,7.549,7.549,0,0,1-2.536,2.648A11.418,11.418,0,0,1,245.73,99a14.916,14.916,0,0,1-3.619.437c-.658,0-1.5-.049-2.543-.145s-1.92-.139-2.645-.139l-3.044-.037v-.14c.268-.139.456-.249.571-.32a1.31,1.31,0,0,0,.349-.37,6.671,6.671,0,0,0,.507-2.267,29.6,29.6,0,0,0,.212-3.558V83.334q0-2.982-.092-5c-.062-1.346-.137-2.328-.217-2.961a7,7,0,0,0-.268-1.328,3.042,3.042,0,0,0-.343-.678,1.365,1.365,0,0,0-.5-.473,1.665,1.665,0,0,0-.354-.181V72.6c.056,0,.389.013.987.037s1.1.04,1.475.04Z"/>
      <path id="Path_5" data-name="Path 5" d="M262.62,84.237h5.4c.063-.037.267-.158.617-.376a4.665,4.665,0,0,0,1.034-.9,5.338,5.338,0,0,0,.925-1.607,6.707,6.707,0,0,0,.429-2.423,5.293,5.293,0,0,0-.737-2.829,4.7,4.7,0,0,0-2.01-1.818,6.467,6.467,0,0,0-2.9-.624,15.63,15.63,0,0,0-1.822.109c-.624.066-.954.23-.987.479Zm0,1.6c.011.024.017.381.017,1.085v2.43c0,.928.006,1.625.017,2.1s.035,1.026.066,1.686.066,1.3.1,1.891.057,1.018.066,1.254c.092.037.491.213,1.211.522a12.837,12.837,0,0,0,2.08.724,8.715,8.715,0,0,0,2.073.248,16.239,16.239,0,0,0,1.89-.213,3.536,3.536,0,0,0,2.605-2.229,7.266,7.266,0,0,0,.468-2.764,6.948,6.948,0,0,0-1.005-3.8,6.368,6.368,0,0,0-2.678-2.377,8.339,8.339,0,0,0-3.632-.8,22.447,22.447,0,0,0-3.276.25ZM260.3,72.677c.657,0,1.889-.079,3.689-.242s3.107-.237,3.924-.237q6.221,0,6.341,5.132a6.376,6.376,0,0,1-.794,3.255A12.249,12.249,0,0,1,271.09,83.4L269.9,84.466a8.348,8.348,0,0,1,3.365.975,6.861,6.861,0,0,1,2.491,2.292,5.784,5.784,0,0,1,.954,3.231,8.174,8.174,0,0,1-1.012,3.97,7.55,7.55,0,0,1-2.536,2.648A11.418,11.418,0,0,1,269.822,99a14.916,14.916,0,0,1-3.619.437c-.658,0-1.5-.049-2.541-.145s-1.92-.139-2.645-.139l-3.045-.037v-.14c.269-.139.457-.249.571-.32a1.309,1.309,0,0,0,.349-.37,6.7,6.7,0,0,0,.508-2.267,29.592,29.592,0,0,0,.211-3.558V83.334q0-2.982-.091-5c-.063-1.346-.137-2.328-.217-2.961a7.077,7.077,0,0,0-.269-1.328,3.021,3.021,0,0,0-.343-.678,1.365,1.365,0,0,0-.5-.473,1.665,1.665,0,0,0-.354-.181V72.6c.057,0,.389.013.987.037s1.1.04,1.472.04Z"/>
      <path id="Path_6" data-name="Path 6" d="M288.367,82.105c-.647,1.952-1.109,3.388-1.371,4.315a32.144,32.144,0,0,0,3.427.177,29.97,29.97,0,0,0,3.667-.213q-.771-2.237-1.579-4.474-1.423-3.965-2.124-5.593c-.321.709-1,2.643-2.022,5.79m-6.61,16.9c-.646,0-1.217.011-1.7.035s-.873.05-1.176.074v-.14a3.958,3.958,0,0,0,.543-.483,6.925,6.925,0,0,0,.9-1.189,25.715,25.715,0,0,0,1.322-2.548c.549-1.17.977-2.14,1.291-2.923l4.554-11.558q1.771-4.5,1.77-6.007a2.909,2.909,0,0,0-.178-1.128,1.894,1.894,0,0,0-.257-.436V72.57c.079,0,.154,0,.223.006s.206.018.389.029.4.025.645.043.451.031.618.031a12.355,12.355,0,0,0,1.89-.182l2.776,8.189q1.018,2.961,2.028,5.746t2.113,5.637q1.111,2.863,1.73,4.243a9.439,9.439,0,0,0,.955,1.794,8.581,8.581,0,0,0,.987.938v.074c-.114,0-.46-.037-1.056-.11a13.44,13.44,0,0,0-1.417-.1c-.371,0-1.211.071-2.531.212q-.583-2.256-1.753-5.965-.523-1.69-1.711-5.1-1.637-.073-4.318-.073c-.834,0-2.188.055-4.05.157l-1.154,3.376q-.531,1.619-1.01,3.329a11.314,11.314,0,0,0-.491,2.636,1.635,1.635,0,0,0,.2.891,1.562,1.562,0,0,0,.457.49,1.076,1.076,0,0,0,.263.146v.11a5.818,5.818,0,0,0-1.063-.074q-1.057-.034-1.777-.034Z"/>
      <path id="Path_7" data-name="Path 7" d="M325.748,72.819a13.626,13.626,0,0,0-.921,2.952,15.96,15.96,0,0,0-.286,2.982l-.548.03a5.747,5.747,0,0,0-.125-.952,2.3,2.3,0,0,0-.543-1.1,5.843,5.843,0,0,0-3.224-1.752,18.035,18.035,0,0,0-6.855-.23,5.521,5.521,0,0,0-1.85.714,6.175,6.175,0,0,0-2.6,4,23.869,23.869,0,0,0-.76,5.242,15.021,15.021,0,0,0,.71,4.808,9.6,9.6,0,0,0,2.1,3.581,9.087,9.087,0,0,0,3.356,2.249,12.747,12.747,0,0,0,4.421.825,10.166,10.166,0,0,0,6.993-2.649l.467.8a16.38,16.38,0,0,0-2.227,2.187,15.572,15.572,0,0,0-1.711,2.395,12.545,12.545,0,0,1-3.53.57,17.834,17.834,0,0,1-6.084-1.068A11.321,11.321,0,0,1,305.71,91.4a17.026,17.026,0,0,1-.9-5.364,15.589,15.589,0,0,1,.921-5.377,12.716,12.716,0,0,1,2.7-4.409,12.465,12.465,0,0,1,4.364-2.961,15.558,15.558,0,0,1,5.894-1.091q1.2,0,4.072.285c1.915.187,2.909.3,2.988.333"/>
      <path id="Path_8" data-name="Path 8" d="M336.067,72.567c-.177,1.7-.3,2.915-.349,3.642-.08,1.3-.132,2.116-.155,2.435s-.056.916-.1,1.757-.08,1.625-.091,2.322-.029,1.327-.029,1.878l.034,3.376a15.264,15.264,0,0,0,.485,4.261,5.315,5.315,0,0,0,1.365,2.449,4.8,4.8,0,0,0,2.074,1.141,15.751,15.751,0,0,0,2.953.441,10.019,10.019,0,0,0,3.421-.63,11.484,11.484,0,0,0,2.948-1.5q1.176-.875,1.177-1.51l.269-6.8.065-4.249c-.023-.164-.051-.794-.085-1.9s-.069-2.02-.109-2.764-.109-1.436-.2-2.106a4.05,4.05,0,0,0-.428-1.454.985.985,0,0,0-.583-.485c-.246-.079-.395-.123-.44-.132v-.109c.245,0,.737.011,1.468.036s1.325.036,1.771.036a12.111,12.111,0,0,0,2.085-.11c-.034.533-.074,1.122-.12,1.758s-.091,1.407-.148,2.31q-.232,4.455-.235,8.183l-.051,5.648c.045.347.074,1.219.091,2.632a31.856,31.856,0,0,0,.2,3.425,3.4,3.4,0,0,0,.719,1.9,1.458,1.458,0,0,0,.46.329,1.992,1.992,0,0,0,.36.152v.175q-.473,0-1.372-.036c-.606-.025-.965-.038-1.085-.038a19.027,19.027,0,0,0-2.566.395V94.706c-.245.206-.646.527-1.2.97s-1.184.951-1.913,1.528-1.3,1.017-1.726,1.325a7.642,7.642,0,0,1-4.318.9,10.092,10.092,0,0,1-5.443-1.254,6.01,6.01,0,0,1-2.559-3.333,17.745,17.745,0,0,1-.663-5.231l.132-5.31c0-.237.023-.976.065-2.213s.081-2.515.1-3.824c0-2.7-.172-4.322-.5-4.869a1.273,1.273,0,0,0-.515-.444,2.353,2.353,0,0,0-.559-.248V72.6q.367,0,1.491.038c.748.024,1.336.036,1.776.036q.949,0,1.267-.036c.212-.024.461-.049.754-.072"/>
      <path id="Path_9" data-name="Path 9" d="M376.02,72.922a15,15,0,0,0-.389,2.3,14.252,14.252,0,0,0-.065,1.614q0,1.153.033,1.674l-.519.1a6.189,6.189,0,0,0-1.96-3.036q-1.6-1.513-5.17-1.579-2.391,0-3.21,1.119a4.069,4.069,0,0,0-.817,2.45,5.084,5.084,0,0,0,.629,2.521,6.48,6.48,0,0,0,1.85,2.025,15.693,15.693,0,0,0,3.027,1.7l3.6,1.6a7.653,7.653,0,0,1,3.114,2.249,5.418,5.418,0,0,1,1.137,3.492,8.067,8.067,0,0,1-4.611,7.261,10.576,10.576,0,0,1-4.713,1.031,31.427,31.427,0,0,1-4.465-.5,11.333,11.333,0,0,1-3.28-.8,24.762,24.762,0,0,0,.417-2.945c0-.273.011-.624.034-1.048s.034-.734.034-.921c0-.607-.011-1.092-.034-1.462h.582a5.661,5.661,0,0,0,1.435,3.189,7.891,7.891,0,0,0,2.907,2.073,9.15,9.15,0,0,0,3.336.745,6.305,6.305,0,0,0,2.839-.551,3.531,3.531,0,0,0,1.634-1.579,5.183,5.183,0,0,0,.526-2.376,5.359,5.359,0,0,0-.629-2.534,5.292,5.292,0,0,0-1.435-1.645,11.484,11.484,0,0,0-2.118-1.206l-4.6-2.079a8.416,8.416,0,0,1-3.535-2.77,6.887,6.887,0,0,1-1.211-3.8,5.706,5.706,0,0,1,1.354-3.882,7.913,7.913,0,0,1,3.53-2.279,16.115,16.115,0,0,1,4.8-.787,29.175,29.175,0,0,1,3.468.321c1.559.213,2.388.316,2.479.316"/>
      <path id="Path_10" data-name="Path 10" d="M210.869,105.06l1.9.034c1.452.034,1.78.363,1.832.813l.018.156c.017.208.052.264.121.264s.142-.07.142-.191c0-.173.051-1.229.051-1.679,0-.087,0-.174-.066-.174s-.21.036-.435.07a7.613,7.613,0,0,1-1.088.066H207.6c-.173,0-.763-.016-1.195-.066a5.4,5.4,0,0,1-.676-.173c-.052,0-.121.19-.156.277-.016.123-.329,1.437-.329,1.593a.117.117,0,0,0,.1.123c.07,0,.123-.018.157-.139a2.412,2.412,0,0,1,.242-.468c.224-.346.592-.45,1.54-.467l2.2-.035v6.181c0,1.419,0,2.579-.07,3.185-.051.433-.138.724-.45.8a2.012,2.012,0,0,1-.45.066c-.087,0-.121.052-.121.1,0,.087.07.123.242.123.45,0,1.507-.052,1.579-.052.087,0,1.053.052,1.885.052.172,0,.242-.052.242-.123a.109.109,0,0,0-.094-.121h-.027a5.725,5.725,0,0,1-.692-.066c-.465-.065-.535-.346-.586-.779-.066-.606-.066-1.766-.066-3.185Z"/>
      <path id="Path_11" data-name="Path 11" d="M221.6,111.24a29.714,29.714,0,0,1-.087,3.186c-.065.432-.1.723-.394.779a4.622,4.622,0,0,1-.468.066.117.117,0,0,0-.121.114v.007c0,.086.087.122.242.122.242,0,.592-.018.884-.036.329-.016.622-.016.658-.016.224,0,.623,0,1.264.034.623.018,1.506.052,2.648.052.592,0,.745,0,.848-.381a12.315,12.315,0,0,0,.209-1.419c0-.105-.018-.226-.1-.226s-.121.052-.156.226a1.119,1.119,0,0,1-.692,1.021,5.082,5.082,0,0,1-1.524.156c-1.506,0-1.784-.191-1.818-1.177-.017-.295,0-2.01,0-2.511v-1.229a.092.092,0,0,1,.076-.105h.029c.259,0,1.887.018,2.3.07.592.066.727.242.779.45a1.306,1.306,0,0,1,.069.484c0,.087.035.139.1.139.1,0,.138-.156.138-.277,0-.1.035-.658.066-.952.027-.273.067-.545.121-.814,0-.087-.034-.122-.087-.122s-.121.087-.224.191c-.157.156-.381.173-.745.208-.347.034-2.355.034-2.545.034-.087,0-.087-.052-.087-.156v-3.995c0-.1.018-.156.087-.156.173,0,1.939.018,2.2.052.832.1.987.207,1.092.45a1.638,1.638,0,0,1,.087.519c0,.122.034.191.121.191.066,0,.121-.087.138-.156.034-.173.07-.831.087-.97.036-.415.121-.592.121-.692,0-.069-.017-.139-.066-.139a1.093,1.093,0,0,0-.208.066,6.783,6.783,0,0,1-.692.087c-.345.018-3.532,0-3.635,0-.087,0-1.074-.034-1.766-.034-.173,0-.242.034-.242.121a.147.147,0,0,0,.121.121,5.024,5.024,0,0,1,.519.034c.5.066.592.312.624.815.034.467.034.882.034,3.167Z"/>
      <path id="Path_12" data-name="Path 12" d="M239.782,115.707a9.022,9.022,0,0,0,2.754-.329c.259-.1.293-.156.38-.434a15.323,15.323,0,0,0,.363-1.887c0-.1-.065-.207-.138-.207-.1,0-.121.052-.156.207a2.742,2.742,0,0,1-.592,1.229,3.214,3.214,0,0,1-2.511.694,5.348,5.348,0,0,1-5.486-5.206c0-.042,0-.083,0-.124a4.809,4.809,0,0,1,1.367-3.844,4.7,4.7,0,0,1,3.429-1.021,4.949,4.949,0,0,1,2.995.813,1.921,1.921,0,0,1,.64,1.473c0,.208.018.311.121.311.087,0,.156-.087.173-.311.018-.208.018-1.023.035-1.507.034-.536.065-.709.065-.831,0-.086-.034-.155-.19-.155a11.077,11.077,0,0,1-1.558-.225,14.809,14.809,0,0,0-2.216-.173,6.269,6.269,0,0,0-4.64,1.579,5.813,5.813,0,0,0-1.711,4.013,5.522,5.522,0,0,0,1.853,4.363,7.18,7.18,0,0,0,5.02,1.579"/>
      <path id="Path_13" data-name="Path 13" d="M259.693,108.643c0-2.285,0-2.7.034-3.167.034-.52.121-.728.52-.815a1.8,1.8,0,0,1,.38-.034.148.148,0,0,0,.139-.121c0-.087-.087-.121-.263-.121-.45,0-1.419.034-1.506.034-.066,0-1.053-.034-1.732-.034-.173,0-.242.034-.242.121a.131.131,0,0,0,.121.121,5,5,0,0,1,.519.034c.5.066.571.312.607.815.017.467.034.917.034,3.2v.312c0,.086-.034.086-.087.086h-6.354c-.052,0-.087,0-.087-.086v-.312c0-2.285,0-2.735.018-3.2.034-.52.121-.728.537-.815a1.67,1.67,0,0,1,.38-.034.147.147,0,0,0,.121-.121c0-.087-.066-.121-.242-.121-.467,0-1.437.034-1.506.034-.087,0-1.053-.034-1.749-.034-.173,0-.243.034-.243.121a.146.146,0,0,0,.122.121,5,5,0,0,1,.519.034c.5.066.588.312.624.815.034.467.034.882.034,3.167v2.6a30.243,30.243,0,0,1-.087,3.186c-.066.432-.1.71-.4.779a2.238,2.238,0,0,1-.468.066.117.117,0,0,0-.121.114v.007c0,.086.087.122.242.122.468,0,1.437-.052,1.524-.052.066,0,1.039.052,1.887.052.174,0,.243-.052.243-.122a.118.118,0,0,0-.115-.121H253.1a6.2,6.2,0,0,1-.693-.066c-.45-.066-.5-.347-.554-.779-.066-.606-.066-1.732-.066-3.151V109.8a.076.076,0,0,1,.087-.087h6.354c.052,0,.087.018.087.087v1.472c0,1.419,0,2.527-.07,3.133-.051.434-.1.728-.415.8a2.136,2.136,0,0,1-.45.066.118.118,0,0,0-.121.115v.006c0,.086.069.122.243.122.45,0,1.437-.052,1.506-.052.087,0,1.053.052,1.887.052.173,0,.26-.052.26-.122a.123.123,0,0,0-.124-.122h-.015a6.373,6.373,0,0,1-.675-.066c-.467-.066-.5-.347-.554-.779-.065-.606-.086-1.766-.086-3.186Z"/>
      <path id="Path_14" data-name="Path 14" d="M268.678,106.566c.467.519,2.179,2.319,3.948,4.172,1.607,1.68,3.806,3.844,3.962,3.982.848.78,1.007.9,1.163.9.1,0,.121-.087.121-1.053l.035-8.62c0-.882.034-1.177.536-1.281a1.713,1.713,0,0,1,.364-.034.174.174,0,0,0,.173-.138c0-.087-.121-.105-.278-.105-.622,0-1.125.034-1.3.034s-.9-.034-1.593-.034c-.173,0-.3.018-.3.105a.121.121,0,0,0,.122.138,4.886,4.886,0,0,1,.744.066c.468.087.554.416.571,1.368l.156,7.375c-.467-.484-2.1-2.233-3.6-3.791-2.354-2.424-4.567-4.779-4.811-5.021-.156-.156-.414-.45-.588-.45-.121,0-.208.155-.208.744v8.432c0,1.334-.052,1.732-.433,1.835a2.383,2.383,0,0,1-.623.087.118.118,0,0,0-.121.116v.005c0,.1.087.122.242.122.692,0,1.333-.052,1.471-.052s.745.052,1.607.052c.173,0,.278-.035.278-.122a.118.118,0,0,0-.116-.121H270.2a3.628,3.628,0,0,1-.763-.087c-.412-.1-.551-.467-.585-1.679Z"/>
      <path id="Path_15" data-name="Path 15" d="M285.732,109.526c0-3.2,1.835-4.8,4.38-4.8,2.406,0,4.553,1.852,4.553,5.385,0,4.259-2.753,4.986-4.12,4.986-2.753,0-4.813-2.147-4.813-5.575m-1.579.4a5.646,5.646,0,0,0,5.5,5.79c.153,0,.3,0,.458-.007a5.9,5.9,0,0,0,6.108-5.678q.006-.165,0-.33c0-3.428-2.6-5.523-6.025-5.523a5.83,5.83,0,0,0-6.036,5.616l0,.132Z"/>
      <path id="Path_16" data-name="Path 16" d="M304.292,108.643c0-2.285,0-2.7.018-3.167.034-.52.121-.746.571-.831.173-.018.394-.035.5-.035.051,0,.121-.051.121-.1,0-.087-.087-.121-.242-.121-.468,0-1.61.034-1.68.034-.086,0-1.038-.034-1.731-.034-.173,0-.242.034-.242.121a.145.145,0,0,0,.121.121,5.022,5.022,0,0,1,.519.034c.5.066.592.312.624.815.034.467.034.882.034,3.167v2.6a30.251,30.251,0,0,1-.087,3.186c-.066.432-.105.71-.4.779a2.238,2.238,0,0,1-.468.066.117.117,0,0,0-.121.114v.007c0,.086.087.122.242.122.242,0,.571-.018.884-.036.293-.016.553-.016.624-.016.449,0,.969.016,1.661.034.71.034,1.558.052,2.649.052.814,0,.865-.052.969-.4a9.121,9.121,0,0,0,.225-1.471c0-.156-.034-.224-.1-.224-.087,0-.139.087-.156.19a1.807,1.807,0,0,1-.365.831c-.363.432-1.038.45-1.835.45-1.2,0-1.783-.105-2.025-.347-.278-.263-.312-1.142-.312-3.306Z"/>
      <path id="Path_17" data-name="Path 17" d="M315.13,109.526c0-3.2,1.835-4.8,4.38-4.8,2.407,0,4.554,1.852,4.554,5.385,0,4.259-2.753,4.986-4.121,4.986-2.753,0-4.813-2.147-4.813-5.575m-1.575.4a5.645,5.645,0,0,0,5.495,5.79c.154,0,.307,0,.46-.007a5.9,5.9,0,0,0,6.109-5.678q.006-.165,0-.33c0-3.428-2.6-5.523-6.025-5.523a5.83,5.83,0,0,0-6.039,5.612l0,.136Z"/>
      <path id="Path_18" data-name="Path 18" d="M339.938,114.305c0,.277-.122.346-.312.45a3.828,3.828,0,0,1-1.645.277,5.442,5.442,0,0,1-3.9-1.541,5.857,5.857,0,0,1-1.61-4.069,4.589,4.589,0,0,1,1.506-3.7,4.843,4.843,0,0,1,3.186-.951c1.974,0,3.134.588,3.515,1.142a2.175,2.175,0,0,1,.345.969c0,.139.018.226.1.226.1,0,.173-.07.173-.312,0-1.471.085-1.869.085-2.077,0-.066-.034-.138-.19-.138a6.615,6.615,0,0,1-1.229-.157,12.65,12.65,0,0,0-2.337-.242,7.658,7.658,0,0,0-4.051.935,5.506,5.506,0,0,0-2.545,4.83,5.629,5.629,0,0,0,1.818,4.19,8.59,8.59,0,0,0,8.257.921c.191-.1.208-.121.208-.8v-1.645c0-.623,0-1.053.018-1.523.034-.52.156-.745.571-.813a1.625,1.625,0,0,1,.381-.036.148.148,0,0,0,.122-.121c0-.1-.07-.121-.242-.121-.468,0-1.421.034-1.489.034-.087,0-1.108-.034-1.8-.034-.173,0-.242.018-.242.121a.148.148,0,0,0,.121.121,5.026,5.026,0,0,1,.52.036c.623.12.658.293.658,1.488Z"/>
      <path id="Path_19" data-name="Path 19" d="M350.8,108.643c0-2.285,0-2.7.018-3.167.034-.52.121-.728.537-.815a1.728,1.728,0,0,1,.38-.034.147.147,0,0,0,.121-.121c0-.087-.066-.121-.242-.121-.467,0-1.454.034-1.524.034-.086,0-1.038-.034-1.54-.034-.173,0-.242.034-.242.121a.131.131,0,0,0,.121.121,2.714,2.714,0,0,1,.467.052c.329.066.45.295.485.8.034.467.034.882.034,3.167v2.6c0,1.42-.018,2.58-.087,3.186-.052.432-.105.71-.395.779a2.238,2.238,0,0,1-.468.066.117.117,0,0,0-.121.114v.007c0,.086.087.122.243.122.467,0,1.42-.052,1.506-.052.069,0,1.056.052,1.908.052.173,0,.242-.052.242-.122a.117.117,0,0,0-.114-.121h-.007a6.406,6.406,0,0,1-.692-.066c-.45-.066-.5-.347-.554-.779-.069-.606-.069-1.766-.069-3.186Z"/>
      <path id="Path_20" data-name="Path 20" d="M359.3,111.24a29.71,29.71,0,0,1-.087,3.186c-.065.432-.1.723-.394.779a4.622,4.622,0,0,1-.468.066.117.117,0,0,0-.121.114v.007c0,.086.087.122.242.122.242,0,.592-.018.883-.036.329-.016.623-.016.658-.016.226,0,.624,0,1.265.034.623.018,1.506.052,2.649.052.592,0,.744,0,.848-.381a12.309,12.309,0,0,0,.208-1.419c0-.105-.017-.226-.1-.226s-.121.052-.156.226a1.116,1.116,0,0,1-.693,1.021,5.075,5.075,0,0,1-1.523.156c-1.507,0-1.784-.191-1.818-1.177-.018-.295,0-2.01,0-2.511v-1.229a.092.092,0,0,1,.076-.105h.029c.259,0,1.886.018,2.3.07.592.066.728.242.779.45a1.307,1.307,0,0,1,.07.484c0,.087.034.139.1.139.1,0,.139-.156.139-.277,0-.1.034-.658.066-.952a7.72,7.72,0,0,1,.121-.814c0-.087-.035-.122-.087-.122s-.121.087-.225.191c-.156.156-.381.173-.744.208-.347.034-2.355.034-2.546.034-.086,0-.086-.052-.086-.156v-3.995c0-.1.017-.156.086-.156.173,0,1.94.018,2.2.052.831.1.987.207,1.091.45a1.61,1.61,0,0,1,.087.519c0,.122.034.191.121.191.066,0,.121-.087.138-.156.035-.173.066-.831.087-.97.035-.415.121-.592.121-.692,0-.069-.017-.139-.065-.139a1.05,1.05,0,0,0-.208.066,6.812,6.812,0,0,1-.693.087c-.346.018-3.532,0-3.636,0-.086,0-1.073-.034-1.766-.034-.173,0-.243.034-.243.121a.148.148,0,0,0,.122.121,4.988,4.988,0,0,1,.519.034c.5.066.589.312.624.815.034.467.034.882.034,3.167Z"/>
      <path id="Path_21" data-name="Path 21" d="M373.268,115.707a4.668,4.668,0,0,0,2.424-.519,2.867,2.867,0,0,0,1.419-2.51c0-1.264-.64-2.286-2.493-3.55l-.432-.293c-1.507-1.023-1.974-1.558-1.974-2.494,0-1.038.917-1.593,2.025-1.593,1.368,0,1.871.555,1.974.728a2.7,2.7,0,0,1,.226.724c.017.121.034.19.138.19s.121-.09.121-.315a15.236,15.236,0,0,1,.07-1.555c0-.087-.035-.1-.157-.1a2.019,2.019,0,0,1-.536-.066,6.267,6.267,0,0,0-1.579-.19c-2.008,0-3.376,1.038-3.376,2.769,0,1.021.537,1.922,2.182,3.151l.692.519c1.35,1,1.922,1.507,1.922,2.563,0,1.108-.779,1.957-2.285,1.957a2.24,2.24,0,0,1-2.406-1.455,2.152,2.152,0,0,1-.052-.537c0-.121-.052-.173-.139-.173s-.121.087-.121.243c-.017.242-.086.831-.086,1.558,0,.394.017.45.225.554a5.6,5.6,0,0,0,2.216.4"/>
      <path id="Path_22" data-name="Path 22" d="M380.624,76.783h.652a1.059,1.059,0,0,0,.637-.139.452.452,0,0,0,.171-.366.445.445,0,0,0-.083-.264.482.482,0,0,0-.227-.173,1.747,1.747,0,0,0-.539-.058h-.611Zm-.537,1.871V75.331h1.144a2.786,2.786,0,0,1,.848.092.821.821,0,0,1,.419.322.849.849,0,0,1,.155.487.877.877,0,0,1-.263.633,1.024,1.024,0,0,1-.691.3.884.884,0,0,1,.282.177,3.717,3.717,0,0,1,.491.658l.406.651h-.651l-.3-.524a2.667,2.667,0,0,0-.563-.777.694.694,0,0,0-.43-.111h-.313v1.41Zm1.358-4.287a2.651,2.651,0,0,0-1.27.334,2.389,2.389,0,0,0-.964.955,2.567,2.567,0,0,0-.005,2.572,2.42,2.42,0,0,0,.956.955,2.568,2.568,0,0,0,2.566,0,2.414,2.414,0,0,0,.954-.955,2.579,2.579,0,0,0-.007-2.572,2.382,2.382,0,0,0-.964-.955,2.655,2.655,0,0,0-1.268-.334Zm0-.511a3.167,3.167,0,0,1,1.519.4,2.85,2.85,0,0,1,1.155,1.143,3.153,3.153,0,0,1,.414,1.549,3.114,3.114,0,0,1-.409,1.537,2.856,2.856,0,0,1-1.142,1.146,3.1,3.1,0,0,1-3.076,0,2.876,2.876,0,0,1-1.145-1.146,3.1,3.1,0,0,1,.006-3.086,2.861,2.861,0,0,1,1.157-1.143,3.167,3.167,0,0,1,1.519-.4Z"/>
    </g>
  </g>
</svg>
